<svg xmlns="http://www.w3.org/2000/svg" xmlns:xlink="http://www.w3.org/1999/xlink" viewBox="0 0 1470 210" id="Ebene_1"><g><path d="M1140 37.5C1140 49.9 1129.9 60 1117.5 60L1054 60C1051.8 60 1050 61.8 1050 64L1050 90 1140 90 1140 97.5C1140 109.9 1129.9 120 1117.5 120L1050 120 1050 146C1050 148.2 1051.8 150 1054 150L1140 150 1140 157.5C1140 169.9 1129.9 180 1117.5 180L1042.5 180C1030.1 180 1020 169.9 1020 157.5L1020 52.5C1020 40.1 1030.1 30 1042.5 30L1140 30 1140 37.5M874.5 60C872 60 870 62 870 64.5L870 105 937.5 105C950.3 105 960.7 94.2 960 81.3 959.4 69.3 949.2 60 937.2 60L874.5 60M990 81.8C990.2 102.7 978.3 120.8 960.8 129.5L990 180 964 180C958.6 180 953.7 177.1 951 172.5L929.4 135 870 135 870 157.5C870 169.9 859.9 180 847.5 180L840 180 840 52.5C840 40.1 850.1 30 862.5 30L936.1 30C965.1 30 989.7 52.9 990 81.8M383.8 36.2 333.1 86.9C331.3 88.7 328.5 88.7 326.7 86.9L276.1 36.3C272.1 32.3 266.7 30.1 261.1 30.1 249.4 30.1 239.9 39.6 239.9 51.3L239.9 180 247.4 180C259.8 180 269.9 169.9 269.9 157.5L269.9 77.2C269.9 75.4 272.1 74.5 273.3 75.8L314 116.5C322.8 125.3 337 125.3 345.8 116.5L386.5 75.8C387.8 74.5 389.9 75.4 389.9 77.2L389.9 180 397.4 180C409.8 180 419.9 169.9 419.9 157.5L419.9 51C419.9 39.4 410.5 30 398.9 30L398.6 30C393.1 30 387.8 32.2 383.8 36.2M187.5 180C199.9 180 210 169.9 210 157.5L210 30 202.5 30C190.1 30 180 40.1 180 52.5L180 180 187.5 180M96.8 105C108.9 105 119.3 95.7 119.9 83.6 120.5 70.7 110.2 60 97.4 60L34.4 60C32 60 30 62 30 64.5L30 105 96.8 105M96.1 30C125.5 30 150.5 54.1 150 83.5 149.5 112 126.2 135 97.5 135L30 135 30 157.5C30 169.9 19.9 180 7.5 180L0 180 0 52.5C0 40.1 10.1 30 22.5 30L96.1 30M735 150C759.8 150 780 129.8 780 105 780 80.2 759.8 60 735 60 719.4 60 705.6 68 697.5 80.1L681 105 697.4 129.7C705.5 141.9 719.3 150 735 150M735 30C776.4 30 810 63.6 810 105 810 146.4 776.4 180 735 180 708.9 180 685.9 166.7 672.5 146.4L663 132.1 642.6 163C623.8 191.4 591.6 210 555 210 497 210 450 163 450 105 450 47 497 0 555 0 591.4 0 623.5 18.5 642.3 46.7L645 50.7 627 77.9 617.1 63C603.6 43.1 580.8 30 555 30 513.6 30 480 63.6 480 105 480 146.4 513.6 180 555 180 581.1 180 604.1 166.6 617.5 146.4L672.4 63.6C685.9 43.4 708.9 30 735 30M1181.2 40.7 1187 40.7C1188.1 40.7 1189.1 41.5 1189.2 42.6 1189.3 43.9 1188.3 45 1187.1 45L1180.7 45 1180.7 41.2 1181.2 40.7ZM1192.2 42.6C1192.1 39.9 1189.7 37.8 1187 37.8L1179.9 37.8C1178.8 37.8 1177.9 38.7 1177.9 39.8L1177.9 52.1 1179.3 52.1 1180.7 50.7 1180.7 47.8 1186.4 47.8 1188.7 51.8 1189.1 52.1 1192.1 52.1 1189.3 47.3C1191.1 46.5 1192.3 44.7 1192.2 42.6M1185 30C1176.7 30 1170 36.7 1170 45 1170 53.3 1176.7 60 1185 60 1193.3 60 1200 53.3 1200 45 1200 36.7 1193.3 30 1185 30M1185 32.9C1191.7 32.9 1197.1 38.3 1197.1 45 1197.1 51.7 1191.7 57.1 1185 57.1 1178.3 57.1 1172.9 51.7 1172.9 45 1172.9 38.3 1178.3 32.9 1185 32.9" id="LOGO_SMALL" fill="#6428b4"/><g id="x_circle"><path d="M1470 105C1470 128.6 1462.2 150.4 1449.1 167.9L1386.2 105 1449.1 42.1C1462.2 59.6 1470 81.4 1470 105ZM1365 83.8 1427.9 20.9C1410.4 7.8 1388.6 0 1365 0 1341.4 0 1319.6 7.8 1302.1 20.9L1365 83.8ZM1365 126.2 1302.1 189.1C1319.6 202.2 1341.4 210 1365 210 1388.6 210 1410.4 202.2 1427.9 189.1L1365 126.2ZM1343.8 105 1280.9 42.1C1267.8 59.6 1260 81.4 1260 105 1260 128.6 1267.8 150.4 1280.9 167.9L1343.8 105Z" fill="#6428b4"/>
</g></g><g/><g/><g/><g/><g/><g/></svg>