<?xml version="1.0" encoding="utf-8"?>
<!-- Generator: Adobe Illustrator 16.0.0, SVG Export Plug-In . SVG Version: 6.00 Build 0)  -->
<!DOCTYPE svg PUBLIC "-//W3C//DTD SVG 1.1//EN" "http://www.w3.org/Graphics/SVG/1.1/DTD/svg11.dtd">
<svg version="1.1" id="Layer_1" xmlns="http://www.w3.org/2000/svg" xmlns:xlink="http://www.w3.org/1999/xlink" x="0px" y="0px" viewBox="0 0 1405 305" enable-background="new 0 0 1405 305" xml:space="preserve">
<g id="shopware">
	<g>
		<g id="_Groupe__8_">
			<path id="_Tracé__8_" fill="#189EFF" d="M412.985,153.88c-12.84-5.479-23.25-10.707-23.25-18.902
				c0-5.73,6.564-11.501,17.813-11.501c9.555,0.135,18.976,2.289,27.641,6.318c2.996,1.587,6.712,0.492,8.365-2.47l4.18-9.031
				c1.505-3.433,0.366-7.447-2.718-9.578c-11.431-6.58-24.449-9.894-37.637-9.575c-31.196,0-44.076,18.857-44.076,35.043
				c0,20.906,16.435,31.737,36.131,40.775c17.814,7.899,27.643,13.671,27.643,22.16c0,7.362-6.023,12.545-16.727,12.545
				c-11.382-0.008-22.514-3.339-32.034-9.575c-2.756-1.861-6.499-1.132-8.358,1.625c-0.001,0.003-0.003,0.005-0.006,0.005
				l-5.728,12.045c-1.075,2.421-0.133,5.262,2.175,6.565c12.474,8.578,27.264,13.156,42.402,13.131
				c28.73,0,46.001-17.523,46.001-37.639C454.343,172.74,436.528,164.001,412.985,153.88z"/>
		</g>
		<g id="_Groupe_2_8_">
			<path id="_Tracé_2_8_" fill="#189EFF" d="M242.408,270.176c-13.132-9.868-32.283-17.23-52.817-25.088
				c-24.38-9.328-52.022-19.992-72.512-36.677c-22.643-16.878-35.63-43.743-34.792-71.97c-0.514-25.848,11.399-50.37,32.032-65.946
				c23.543-18.609,59.132-28.186,102.914-28.186c11.522-0.007,23.03,0.719,34.459,2.173c0.971,0.115,1.891-0.458,2.216-1.379
				c0.526-0.831,0.281-1.932-0.544-2.467C191.583-15.006,96.393-10.03,40.75,51.75S-9.916,208.721,51.865,264.361
				c27.608,24.865,63.436,38.646,100.592,38.684c32.247,0.153,63.665-10.211,89.49-29.525c0.479-0.431,0.778-1.026,0.837-1.671
				C243.034,271.262,242.785,270.72,242.408,270.176z"/>
			<path id="_Tracé_3_8_" fill="#189EFF" d="M302.459,138.826c-0.007-0.577-0.327-1.106-0.836-1.379
				c-31.491-26.012-56.915-36.676-87.819-36.676c-16.392,0-28.979,3.302-37.635,9.868c-7.214,5.295-11.408,13.762-11.25,22.709
				c0,25.718,31.783,37.636,68.163,51.438c19.375,6.7,38.218,14.851,56.372,24.378c0.326,0.197,0.708,0.284,1.088,0.251
				c0.301,0.036,0.604-0.054,0.836-0.251c0.637-0.236,1.143-0.74,1.381-1.38c6.838-17.525,10.355-36.175,10.369-54.99
				C303.177,148.128,302.954,143.463,302.459,138.826z"/>
		</g>
		<path id="_Tracé_transparent__8_" fill="#189EFF" d="M1168.055,232.666c3.615-0.256,6.449-3.197,6.568-6.819v-65.401
			c0-33.456-4.182-59.382-47.088-59.382c-15.727-0.102-31.355,2.488-46.209,7.652c-3.287,0.763-5.33,4.04-4.57,7.328
			c0.053,0.208,0.109,0.414,0.178,0.617l2.717,10.915c0.344,3.426,3.398,5.924,6.822,5.583c0.223-0.025,0.445-0.06,0.668-0.105
			c12.213-3.735,24.867-5.844,37.635-6.272c16.979,0,22.162,9.575,21.621,30.905c-8.811-2.597-17.922-3.999-27.1-4.185
			c-34.457,0-53.652,18.61-53.652,43.242c0,27.935,17.813,37.636,42.986,37.636c20.533,0,41.822-0.293,50.645-0.835
			L1168.055,232.666z M1145.895,208.87c-4.184,6.565-18.609,4.936-31.197,4.643c-13.965-0.253-20.91-5.189-20.91-17.23
			c0-13.967,12.002-22.16,27.641-22.16c8.35-0.138,16.629,1.442,24.34,4.641v30.107H1145.895z"/>
		<path id="_Tracé_transparent_2_8_" fill="#189EFF" d="M1387.561,99.683c8.477,0,15.346-6.869,15.346-15.347
			c0-8.477-6.869-15.347-15.346-15.347c-8.475,0-15.348,6.87-15.348,15.347c-0.023,8.455,6.811,15.324,15.262,15.347
			C1387.506,99.683,1387.535,99.683,1387.561,99.683z M1387.561,71.497c7.252-0.136,13.24,5.628,13.381,12.877
			c0.139,7.252-5.627,13.243-12.879,13.381c-7.25,0.138-13.24-5.625-13.379-12.878c-0.002-0.084-0.002-0.166-0.002-0.247
			c-0.137-7.114,5.514-12.991,12.625-13.129C1387.391,71.5,1387.475,71.497,1387.561,71.497L1387.561,71.497z"/>
		<path id="_Tracé_transparent_3_8_" fill="#189EFF" d="M1382.332,92.281h1.381c0.291-0.02,0.525-0.253,0.545-0.543v-5.479h3.303
			l2.719,5.771c0,0.25,0.293,0.25,0.543,0.25h1.59c0.291,0,0.545-0.25,0.291-0.543l-3.01-5.479c1.814-0.633,3.092-2.269,3.264-4.181
			c0.094-2.586-1.928-4.756-4.516-4.851c-0.07,0-0.143,0-0.211,0h-6.02c-0.293,0.02-0.527,0.252-0.547,0.543v14.51
			C1382.08,92.031,1382.08,92.281,1382.332,92.281z M1384.258,78.9h3.973c1.502,0,2.717,1.217,2.717,2.717s-1.215,2.719-2.717,2.719
			l0,0h-3.848L1384.258,78.9z"/>
		<path id="_Tracé_4_8_" fill="#189EFF" d="M539.986,99.683c-13.54,0.281-26.612,4.998-37.216,13.424V55.608
			c-0.223-3.229-2.793-5.802-6.022-6.023h-15.599c-3.279,0.108-5.913,2.742-6.02,6.023v172.413c0.022,3.316,2.704,6,6.02,6.025
			h15.307c3.198,0.277,6.016-2.086,6.298-5.285c0.02-0.245,0.027-0.493,0.017-0.74v-83.173
			c7.093-11.771,19.924-18.866,33.662-18.609c16.728,0,25.719,12.545,25.719,33.452v68.124c0.024,3.316,2.704,5.998,6.023,6.021
			h15.596c3.28-0.107,5.916-2.743,6.022-6.021v-67.369C589.792,125.402,576.368,99.683,539.986,99.683z"/>
		<path id="_Tracé_transparent_4_8_" fill="#189EFF" d="M866.213,161.825c-1.674-43.828-19.99-62.142-62.143-62.142
			c-16.238,0.304-32.357,2.88-47.881,7.653c-4.393,1.923-7.654,4.18-7.654,7.108v163.929c0.025,3.317,2.705,5.997,6.023,6.02h12.838
			c3.236,0.373,6.158-1.947,6.529-5.185c0.031-0.276,0.043-0.559,0.033-0.835v-46.419c13.41,1.993,26.979,2.733,40.525,2.215
			c29.818-0.833,49.805-22.455,51.436-59.129c0.293-5.461,0.293-10.935,0-16.395v3.013L866.213,161.825z M839.367,175.207
			c-0.545,25.09-7.654,35.837-28.73,36.969c-11.617-0.11-23.217-0.851-34.75-2.219c-1.09-0.251-1.633-0.794-1.633-1.634v-79.076
			c-0.047-0.712,0.492-1.329,1.207-1.379c0.059-0.003,0.117-0.003,0.172,0c9.33-2.188,18.857-3.378,28.438-3.556
			c25.469,0,34.207,3.849,35.297,35.84V175.207z"/>
		<path id="_Tracé_5_8_" fill="#189EFF" d="M1050.674,102.315h-11.793c-3.264,0-8.365,0-9.828,3.849l-20.533,74.185h-0.543
			l-34.5-77.738c-0.992-2.078-3.193-3.289-5.479-3.013h-1.924c-2.154-0.042-4.152,1.118-5.186,3.013l-34.75,77.446h-0.541
			l-20.91-73.893c-0.803-2.444-3.164-4.032-5.732-3.849h-17.143c-4.393,0-6.314,3.305-4.393,7.405l37.637,121.271
			c0.771,2.157,2.906,3.517,5.186,3.306h1.631c2.135,0.22,4.154-1.012,4.936-3.013l39.682-87.565h0.545l39.396,87.272
			c1.113,1.956,3.229,3.115,5.479,3.013h1.086c2.416,0.225,4.717-1.075,5.77-3.264l36.676-121.271
			C1057.49,105.706,1055.021,102.315,1050.674,102.315z"/>
		<path id="_Tracé_6_8_" fill="#189EFF" d="M1255.918,101.313h-5.229c-6.566,0-13.129,0.292-19.154,0.543l0,0
			c-11.498,0.546-18.316,1.382-23.25,1.922c0,0-3.01,0.293-6.857,0.836c-2.031,0.146-3.91,1.132-5.186,2.72
			c-0.746,0.818-1.139,1.903-1.088,3.012v117.673c0.023,3.316,2.705,6,6.023,6.025h12.838c5.229,0,9.031-0.544,9.031-6.025v-79.701
			l0,0v-18.274c0-0.797,1.129-1.633,1.924-2.177c3.012-1.923,10.666-3.302,26.012-3.302h3.432c3.666,0.219,7.27,1.053,10.662,2.466
			c2.879,1.416,6.365,0.231,7.781-2.649c0.059-0.118,0.113-0.239,0.162-0.36l6.566-10.916
			C1283.686,104.616,1268.211,101.313,1255.918,101.313z"/>
		<path id="_Tracé_transparent_5_8_" fill="#189EFF" d="M1344.32,99.683c-38.598,0-64.066,30.905-64.066,66.911
			c0,36.004,25.469,67.325,64.318,67.325c17.301,0.558,34.24-5.012,47.84-15.724c3.805-3.303,2.719-5.77,0.545-8.781l-7.656-11.752
			c-2.215-3.302-4.684-2.467-7.693-0.543c-8.932,7.111-20.027,10.96-31.445,10.915c-20.057,0.405-36.908-14.989-38.307-35.001
			h88.738c3.043-0.079,5.535-2.444,5.77-5.479c0.25-2.173,0.543-6.568,0.543-9.031c0.936-31.561-23.889-57.898-55.445-58.831
			C1346.412,99.658,1345.365,99.655,1344.32,99.683z M1308.984,152.498c1.924-16.141,14.262-29.272,34.498-29.272
			c16.799-0.727,31.008,12.3,31.734,29.096c0.004,0.061,0.006,0.119,0.008,0.176H1308.984z"/>
		<path id="_Tracé_transparent_6_8_" fill="#189EFF" d="M726.082,139.37c-2.682-7.853-6.857-15.11-12.297-21.372
			c-5.252-5.853-11.698-10.516-18.906-13.674c-8.243-3.289-17.047-4.966-25.924-4.933c-8.896-0.073-17.72,1.605-25.969,4.933
			c-7.167,3.224-13.601,7.877-18.903,13.674c-5.352,6.326-9.519,13.567-12.294,21.372c-5.853,17.861-5.853,37.126,0,54.991
			c2.722,7.691,6.895,14.791,12.294,20.909c5.183,5.93,11.647,10.605,18.903,13.675c8.238,3.381,17.061,5.116,25.969,5.102
			c8.911,0.092,17.751-1.585,26.012-4.936c7.168-3.216,13.603-7.872,18.9-13.675c5.342-6.163,9.506-13.249,12.295-20.91
			c5.854-17.86,5.854-37.127,0-54.99L726.082,139.37z M668.325,212.176c-23.25,0-34.999-19.739-34.999-44.078
			c0-24.336,11.749-44.075,34.999-44.075c23.255,0,35.042,19.739,35.042,44.075C703.367,192.437,691.62,212.176,668.325,212.176
			L668.325,212.176z"/>
	</g>
</g>
</svg>
